<?xml version="1.0" ?><!DOCTYPE svg  PUBLIC '-//W3C//DTD SVG 1.1//EN'  'http://www.w3.org/Graphics/SVG/1.1/DTD/svg11.dtd'><svg enable-background="new 0 0 65 65" height="65px" version="1.1" viewBox="0 0 65 65" width="65px" xml:space="preserve" xmlns="http://www.w3.org/2000/svg" xmlns:xlink="http://www.w3.org/1999/xlink"><g id="Layer_2"><path d="   M55,32h-4.034C52.256,33.957,53,36.16,53,38.5c0,1.948-0.511,3.803-1.424,5.5H55c1.104,0,2-0.826,2-1.846v-8.309   C57,32.826,56.104,32,55,32z" fill="none" stroke="#92278F" stroke-linecap="round" stroke-linejoin="round" stroke-miterlimit="10" stroke-width="2"/><path d="   M46.924,49.107c-2.326,1.651-5.19,2.858-8.375,3.457l0.751,2.657c0.277,0.981,1.364,1.532,2.426,1.232l4.812-1.361   c1.063-0.3,1.699-1.339,1.422-2.319L46.924,49.107z" fill="none" stroke="#92278F" stroke-linecap="round" stroke-linejoin="round" stroke-miterlimit="10" stroke-width="2"/><path d="   M20.251,48.489l-1.211,4.284c-0.277,0.98,0.359,2.02,1.422,2.319l4.812,1.361c1.062,0.3,2.149-0.251,2.426-1.232l0.804-2.844   C25.315,51.644,22.49,50.283,20.251,48.489z" fill="none" stroke="#92278F" stroke-linecap="round" stroke-linejoin="round" stroke-miterlimit="10" stroke-width="2"/><ellipse cx="45.5" cy="36" fill="#92278F" rx="1.5" ry="2"/><path d="   M6,41.611c0,0,0,2.77,2.769,2.77c2.77,0,2.77-3.462,1.385-4.847s2.769-5.538,4.846-1.73" fill="none" stroke="#92278F" stroke-linecap="round" stroke-linejoin="round" stroke-miterlimit="10" stroke-width="2"/><path d="   M41.388,25.138L39.32,30.7l0.059,0.3h-0.17h-9.898h-1.142l-1.169-5.971C19.974,27.158,15,32.381,15,38.5C15,46.508,23.506,53,34,53   c10.493,0,19-6.492,19-14.5C53,32.492,48.211,27.337,41.388,25.138z" fill="none" stroke="#92278F" stroke-linecap="round" stroke-linejoin="round" stroke-miterlimit="10" stroke-width="2"/><g><polygon fill="none" points="    39.208,31 39.378,31 39.32,30.7   " stroke="#00A651" stroke-linecap="round" stroke-linejoin="round" stroke-miterlimit="10" stroke-width="2"/><path d="    M28.383,28.551l5.587-15.033c-0.019,0.003-0.036,0.001-0.055,0.005l-6.87,1.347c-1.084,0.211-1.791,1.263-1.578,2.346L28.168,31    h1.142C28.447,30.533,28.032,29.498,28.383,28.551z" fill="none" stroke="#00A651" stroke-linecap="round" stroke-linejoin="round" stroke-miterlimit="10" stroke-width="2"/></g><g><path d="M40.376,25.108l-0.874-0.242c-0.199,0.609-0.53,1.161-0.83,1.456l-1-0.575    c0.319-0.327,0.662-0.817,0.827-1.415c0.146-0.525,0.042-0.94-0.326-1.042c-0.35-0.097-0.653,0.136-1.071,0.754    c-0.604,0.894-1.25,1.438-2.144,1.19c-0.811-0.225-1.287-0.971-1.208-2.01l-0.875-0.242l0.25-0.902l0.811,0.225    c0.199-0.609,0.442-0.988,0.673-1.251l0.966,0.556c-0.167,0.211-0.496,0.576-0.68,1.238c-0.166,0.599,0.039,0.863,0.295,0.935    c0.304,0.084,0.587-0.185,1.099-0.885c0.689-0.989,1.317-1.291,2.146-1.062c0.819,0.227,1.359,1.001,1.25,2.11l0.938,0.261    L40.376,25.108z" fill="#92278F"/></g><path d="   M29.311,31h9.898l5.408-14.551c0.385-1.036-0.143-2.188-1.178-2.572l-6.562-2.438c-1.035-0.385-2.187,0.143-2.571,1.178   l-5.922,15.935C28.032,29.498,28.447,30.533,29.311,31z" fill="none" stroke="#00A651" stroke-linecap="round" stroke-linejoin="round" stroke-miterlimit="10" stroke-width="2"/><line fill="none" stroke="#92278F" stroke-linecap="round" stroke-linejoin="round" stroke-miterlimit="10" stroke-width="2" x1="28" x2="40" y1="31" y2="31"/></g><g id="Layer_3"/></svg>